<mxfile host="www.draw.io" modified="2019-10-23T08:55:05.979Z" agent="Mozilla/5.0 (Windows NT 10.0; Win64; x64) AppleWebKit/537.36 (KHTML, like Gecko) Chrome/77.0.3865.120 Safari/537.36" etag="uBemcPl6n9bmMU1L9BOj" version="12.1.3" type="github" pages="1">
  <diagram name="Page-1" id="13e1069c-82ec-6db2-03f1-153e76fe0fe0">
    <mxGraphModel dx="740" dy="350" grid="1" gridSize="10" guides="1" tooltips="1" connect="1" arrows="1" fold="1" page="1" pageScale="1" pageWidth="1100" pageHeight="850" background="#ffffff" math="0" shadow="0">
      <root>
        <mxCell id="0"/>
        <mxCell id="1" parent="0"/>
        <mxCell id="7baba1c4bc27f4b0-21" value="response" style="html=1;verticalAlign=bottom;endArrow=open;dashed=1;endSize=8;labelBackgroundColor=none;fontFamily=Verdana;fontSize=12;edgeStyle=elbowEdgeStyle;elbow=vertical;" parent="1" source="1FdeVvT8v4bKBEFEmuss-5" edge="1">
          <mxGeometry relative="1" as="geometry">
            <mxPoint x="431" y="300" as="targetPoint"/>
            <Array as="points">
              <mxPoint x="501" y="300"/>
              <mxPoint x="481" y="170"/>
              <mxPoint x="411" y="240"/>
              <mxPoint x="351" y="220"/>
              <mxPoint x="831" y="260"/>
              <mxPoint x="861" y="260"/>
            </Array>
          </mxGeometry>
        </mxCell>
        <mxCell id="7baba1c4bc27f4b0-36" value="create &amp;amp; verify&lt;br&gt;shared&lt;br&gt;secret" style="html=1;verticalAlign=bottom;endArrow=block;labelBackgroundColor=none;fontFamily=Verdana;fontSize=12;elbow=vertical;edgeStyle=orthogonalEdgeStyle;curved=1;" parent="1" source="1FdeVvT8v4bKBEFEmuss-20" edge="1">
          <mxGeometry x="0.2949" y="-33" relative="1" as="geometry">
            <mxPoint x="617.5" y="350.5" as="sourcePoint"/>
            <mxPoint x="611.5" y="389.5" as="targetPoint"/>
            <Array as="points">
              <mxPoint x="667" y="350"/>
              <mxPoint x="667" y="390"/>
            </Array>
            <mxPoint x="33" y="33" as="offset"/>
          </mxGeometry>
        </mxCell>
        <mxCell id="1FdeVvT8v4bKBEFEmuss-5" value="Player_2&lt;br&gt;" style="shape=umlLifeline;participant=umlActor;perimeter=lifelinePerimeter;whiteSpace=wrap;html=1;container=1;collapsible=0;recursiveResize=0;verticalAlign=top;spacingTop=36;labelBackgroundColor=#ffffff;outlineConnect=0;" parent="1" vertex="1">
          <mxGeometry x="591" y="40" width="20" height="495" as="geometry"/>
        </mxCell>
        <mxCell id="7baba1c4bc27f4b0-19" value="" style="html=1;points=[];perimeter=orthogonalPerimeter;rounded=0;shadow=0;comic=0;labelBackgroundColor=none;strokeColor=#000000;strokeWidth=1;fillColor=#FFFFFF;fontFamily=Verdana;fontSize=12;fontColor=#000000;align=center;" parent="1FdeVvT8v4bKBEFEmuss-5" vertex="1">
          <mxGeometry x="5" y="214.5" width="10" height="40" as="geometry"/>
        </mxCell>
        <mxCell id="1FdeVvT8v4bKBEFEmuss-20" value="" style="html=1;points=[];perimeter=orthogonalPerimeter;rounded=0;shadow=0;comic=0;labelBackgroundColor=none;strokeColor=#000000;strokeWidth=1;fillColor=#FFFFFF;fontFamily=Verdana;fontSize=12;fontColor=#000000;align=center;" parent="1FdeVvT8v4bKBEFEmuss-5" vertex="1">
          <mxGeometry x="5" y="304" width="10" height="56" as="geometry"/>
        </mxCell>
        <mxCell id="1FdeVvT8v4bKBEFEmuss-26" value="" style="html=1;points=[];perimeter=orthogonalPerimeter;rounded=0;shadow=0;comic=0;labelBackgroundColor=none;strokeColor=#000000;strokeWidth=1;fillColor=#FFFFFF;fontFamily=Verdana;fontSize=12;fontColor=#000000;align=center;" parent="1FdeVvT8v4bKBEFEmuss-5" vertex="1">
          <mxGeometry x="5" y="420" width="10" height="40" as="geometry"/>
        </mxCell>
        <mxCell id="1FdeVvT8v4bKBEFEmuss-7" value="Orchestrator" style="shape=umlLifeline;participant=umlControl;perimeter=lifelinePerimeter;whiteSpace=wrap;html=1;container=1;collapsible=0;recursiveResize=0;verticalAlign=top;spacingTop=36;labelBackgroundColor=#ffffff;outlineConnect=0;" parent="1" vertex="1">
          <mxGeometry x="401" y="40" width="40" height="510" as="geometry"/>
        </mxCell>
        <mxCell id="7baba1c4bc27f4b0-16" value="" style="html=1;points=[];perimeter=orthogonalPerimeter;rounded=0;shadow=0;comic=0;labelBackgroundColor=none;strokeColor=#000000;strokeWidth=1;fillColor=#FFFFFF;fontFamily=Verdana;fontSize=12;fontColor=#000000;align=center;" parent="1FdeVvT8v4bKBEFEmuss-7" vertex="1">
          <mxGeometry x="15" y="156" width="10" height="315" as="geometry"/>
        </mxCell>
        <mxCell id="1FdeVvT8v4bKBEFEmuss-8" value="Player_1&lt;br&gt;" style="shape=umlLifeline;participant=umlActor;perimeter=lifelinePerimeter;whiteSpace=wrap;html=1;container=1;collapsible=0;recursiveResize=0;verticalAlign=top;spacingTop=36;labelBackgroundColor=#ffffff;outlineConnect=0;" parent="1" vertex="1">
          <mxGeometry x="210" y="46" width="20" height="494" as="geometry"/>
        </mxCell>
        <mxCell id="1FdeVvT8v4bKBEFEmuss-9" value="" style="html=1;points=[];perimeter=orthogonalPerimeter;" parent="1FdeVvT8v4bKBEFEmuss-8" vertex="1">
          <mxGeometry x="5" y="143" width="10" height="27" as="geometry"/>
        </mxCell>
        <mxCell id="1FdeVvT8v4bKBEFEmuss-14" value="" style="html=1;points=[];perimeter=orthogonalPerimeter;rounded=0;shadow=0;comic=0;labelBackgroundColor=none;strokeColor=#000000;strokeWidth=1;fillColor=#FFFFFF;fontFamily=Verdana;fontSize=12;fontColor=#000000;align=center;" parent="1FdeVvT8v4bKBEFEmuss-8" vertex="1">
          <mxGeometry x="5" y="214" width="10" height="40" as="geometry"/>
        </mxCell>
        <mxCell id="1FdeVvT8v4bKBEFEmuss-19" value="" style="html=1;points=[];perimeter=orthogonalPerimeter;rounded=0;shadow=0;comic=0;labelBackgroundColor=none;strokeColor=#000000;strokeWidth=1;fillColor=#FFFFFF;fontFamily=Verdana;fontSize=12;fontColor=#000000;align=center;" parent="1FdeVvT8v4bKBEFEmuss-8" vertex="1">
          <mxGeometry x="5" y="304" width="10" height="46" as="geometry"/>
        </mxCell>
        <mxCell id="1FdeVvT8v4bKBEFEmuss-25" value="" style="html=1;points=[];perimeter=orthogonalPerimeter;rounded=0;shadow=0;comic=0;labelBackgroundColor=none;strokeColor=#000000;strokeWidth=1;fillColor=#FFFFFF;fontFamily=Verdana;fontSize=12;fontColor=#000000;align=center;" parent="1FdeVvT8v4bKBEFEmuss-8" vertex="1">
          <mxGeometry x="5" y="414" width="10" height="40" as="geometry"/>
        </mxCell>
        <mxCell id="1FdeVvT8v4bKBEFEmuss-10" value="createGroup" style="html=1;verticalAlign=bottom;endArrow=block;" parent="1" source="1FdeVvT8v4bKBEFEmuss-9" target="1FdeVvT8v4bKBEFEmuss-7" edge="1">
          <mxGeometry width="80" relative="1" as="geometry">
            <mxPoint x="221" y="160" as="sourcePoint"/>
            <mxPoint x="301" y="160" as="targetPoint"/>
            <Array as="points">
              <mxPoint x="281" y="200"/>
            </Array>
          </mxGeometry>
        </mxCell>
        <mxCell id="1FdeVvT8v4bKBEFEmuss-11" value="broadcast &amp;lt;invite&amp;gt;" style="html=1;verticalAlign=bottom;endArrow=block;entryX=1;entryY=0.05;entryDx=0;entryDy=0;entryPerimeter=0;" parent="1" source="7baba1c4bc27f4b0-16" target="1FdeVvT8v4bKBEFEmuss-14" edge="1">
          <mxGeometry width="80" relative="1" as="geometry">
            <mxPoint x="414" y="270" as="sourcePoint"/>
            <mxPoint x="430.5" y="210" as="targetPoint"/>
            <Array as="points"/>
          </mxGeometry>
        </mxCell>
        <mxCell id="1FdeVvT8v4bKBEFEmuss-15" value="broadcast &amp;lt;invite&amp;gt;" style="html=1;verticalAlign=bottom;endArrow=block;" parent="1" target="1FdeVvT8v4bKBEFEmuss-5" edge="1">
          <mxGeometry width="80" relative="1" as="geometry">
            <mxPoint x="427" y="260" as="sourcePoint"/>
            <mxPoint x="235" y="268" as="targetPoint"/>
            <Array as="points"/>
          </mxGeometry>
        </mxCell>
        <mxCell id="1FdeVvT8v4bKBEFEmuss-16" value="response" style="html=1;verticalAlign=bottom;endArrow=open;dashed=1;endSize=8;labelBackgroundColor=none;fontFamily=Verdana;fontSize=12;edgeStyle=elbowEdgeStyle;elbow=vertical;exitX=0.733;exitY=0.988;exitDx=0;exitDy=0;exitPerimeter=0;" parent="1" source="1FdeVvT8v4bKBEFEmuss-14" edge="1">
          <mxGeometry relative="1" as="geometry">
            <mxPoint x="411" y="300" as="targetPoint"/>
            <Array as="points">
              <mxPoint x="321" y="300"/>
              <mxPoint x="491" y="180"/>
              <mxPoint x="421" y="250"/>
              <mxPoint x="361" y="230"/>
              <mxPoint x="841" y="270"/>
              <mxPoint x="871" y="270"/>
            </Array>
            <mxPoint x="580.5" y="310" as="sourcePoint"/>
          </mxGeometry>
        </mxCell>
        <mxCell id="1FdeVvT8v4bKBEFEmuss-17" value="broadcast &amp;lt;groupIsSet&amp;gt;" style="html=1;verticalAlign=bottom;endArrow=block;exitX=-0.089;exitY=0.486;exitDx=0;exitDy=0;exitPerimeter=0;" parent="1" source="7baba1c4bc27f4b0-16" target="1FdeVvT8v4bKBEFEmuss-8" edge="1">
          <mxGeometry width="80" relative="1" as="geometry">
            <mxPoint x="411" y="352" as="sourcePoint"/>
            <mxPoint x="222" y="352" as="targetPoint"/>
            <Array as="points"/>
          </mxGeometry>
        </mxCell>
        <mxCell id="1FdeVvT8v4bKBEFEmuss-18" value="broadcast &amp;lt;groupIsSet&amp;gt;" style="html=1;verticalAlign=bottom;endArrow=block;entryX=0.022;entryY=0.108;entryDx=0;entryDy=0;entryPerimeter=0;" parent="1" target="1FdeVvT8v4bKBEFEmuss-20" edge="1">
          <mxGeometry width="80" relative="1" as="geometry">
            <mxPoint x="427.5" y="350" as="sourcePoint"/>
            <mxPoint x="571" y="350" as="targetPoint"/>
            <Array as="points"/>
          </mxGeometry>
        </mxCell>
        <mxCell id="1FdeVvT8v4bKBEFEmuss-21" value="response" style="html=1;verticalAlign=bottom;endArrow=open;dashed=1;endSize=8;labelBackgroundColor=none;fontFamily=Verdana;fontSize=12;edgeStyle=elbowEdgeStyle;elbow=vertical;exitX=0.295;exitY=1.007;exitDx=0;exitDy=0;exitPerimeter=0;" parent="1" source="1FdeVvT8v4bKBEFEmuss-20" edge="1">
          <mxGeometry relative="1" as="geometry">
            <mxPoint x="431" y="400" as="targetPoint"/>
            <Array as="points">
              <mxPoint x="491.5" y="400"/>
              <mxPoint x="471.5" y="270"/>
              <mxPoint x="401.5" y="340"/>
              <mxPoint x="341.5" y="320"/>
              <mxPoint x="821.5" y="360"/>
              <mxPoint x="851.5" y="360"/>
            </Array>
            <mxPoint x="581" y="395" as="sourcePoint"/>
          </mxGeometry>
        </mxCell>
        <mxCell id="1FdeVvT8v4bKBEFEmuss-22" value="response" style="html=1;verticalAlign=bottom;endArrow=open;dashed=1;endSize=8;labelBackgroundColor=none;fontFamily=Verdana;fontSize=12;edgeStyle=elbowEdgeStyle;elbow=vertical;" parent="1" source="1FdeVvT8v4bKBEFEmuss-19" edge="1">
          <mxGeometry relative="1" as="geometry">
            <mxPoint x="411" y="390" as="targetPoint"/>
            <Array as="points">
              <mxPoint x="391" y="390"/>
              <mxPoint x="411.5" y="350"/>
              <mxPoint x="351.5" y="330"/>
              <mxPoint x="831.5" y="370"/>
              <mxPoint x="861.5" y="370"/>
            </Array>
            <mxPoint x="578.1666666666667" y="410.33333333333337" as="sourcePoint"/>
          </mxGeometry>
        </mxCell>
        <mxCell id="1FdeVvT8v4bKBEFEmuss-23" value="broadcast &amp;lt;listCoefficients&amp;gt;" style="html=1;verticalAlign=bottom;endArrow=block;exitX=-0.089;exitY=0.486;exitDx=0;exitDy=0;exitPerimeter=0;" parent="1" edge="1">
          <mxGeometry width="80" relative="1" as="geometry">
            <mxPoint x="415.6100000000001" y="459.5899999999999" as="sourcePoint"/>
            <mxPoint x="219.82352941176464" y="459.5899999999999" as="targetPoint"/>
            <Array as="points"/>
          </mxGeometry>
        </mxCell>
        <mxCell id="1FdeVvT8v4bKBEFEmuss-24" value="broadcast &amp;lt;listCoefficients&amp;gt;" style="html=1;verticalAlign=bottom;endArrow=block;" parent="1" target="1FdeVvT8v4bKBEFEmuss-5" edge="1">
          <mxGeometry width="80" relative="1" as="geometry">
            <mxPoint x="430" y="459" as="sourcePoint"/>
            <mxPoint x="591.22" y="459.5480000000001" as="targetPoint"/>
            <Array as="points"/>
          </mxGeometry>
        </mxCell>
        <mxCell id="1FdeVvT8v4bKBEFEmuss-27" value="create &amp;amp; verify&lt;br&gt;shared&lt;br&gt;secret" style="html=1;verticalAlign=bottom;endArrow=block;labelBackgroundColor=none;fontFamily=Verdana;fontSize=12;elbow=vertical;edgeStyle=orthogonalEdgeStyle;curved=1;" parent="1" edge="1">
          <mxGeometry x="0.2361" y="-30" relative="1" as="geometry">
            <mxPoint x="199" y="350" as="sourcePoint"/>
            <mxPoint x="205" y="390" as="targetPoint"/>
            <Array as="points">
              <mxPoint x="150" y="350"/>
              <mxPoint x="150" y="390"/>
            </Array>
            <mxPoint x="-30" y="-30" as="offset"/>
          </mxGeometry>
        </mxCell>
      </root>
    </mxGraphModel>
  </diagram>
</mxfile>
